<?xml version="1.0" encoding="UTF-8"?>
<svg version="1.1" xmlns="http://www.w3.org/2000/svg" viewBox="0 0 482 494">
<path d="M0 0 C2.60546875 1.96875 2.60546875 1.96875 5.1875 4.5 C6.14011719 5.4075 7.09273437 6.315 8.07421875 7.25 C8.55938965 7.71277344 9.04456055 8.17554688 9.54443359 8.65234375 C11.77251048 10.71523949 14.13102506 12.60210877 16.5 14.5 C21.25739668 18.33835414 25.75783918 22.39622359 30.25390625 26.53515625 C32.91875166 28.92707297 35.64831825 31.19254884 38.4375 33.4375 C43.51762743 37.53648694 48.30641086 41.87545211 53.078125 46.32421875 C55.72211476 48.87059545 55.72211476 48.87059545 57.78865147 50.22713661 C60.56259569 52.21821341 62.64148236 53.79005323 63.63427544 57.14059067 C63.86104581 59.73861675 63.86650209 62.25377954 63.79467773 64.86083984 C63.79569992 65.83707306 63.79672211 66.81330627 63.79777527 67.81912231 C63.79291248 71.03418286 63.73853122 74.24637546 63.68359375 77.4609375 C63.67053295 79.69437102 63.66057106 81.92782463 63.65357971 84.1612854 C63.62689258 90.03081945 63.55816239 95.89913488 63.48065186 101.76818848 C63.40895804 107.76065588 63.37705496 113.7533208 63.34179688 119.74609375 C63.26679384 131.49793033 63.14737017 143.24886371 63 155 C60.03 155.66 57.06 156.32 54 157 C54.02300171 155.83061386 54.04600342 154.66122772 54.06970215 153.45640564 C54.27695639 142.37983355 54.39831708 131.30512118 54.43784332 120.22664547 C54.46086147 114.53193706 54.51302479 108.84074794 54.63427734 103.1472168 C54.75042215 97.64124232 54.78676409 92.13974851 54.7702179 86.6326313 C54.77749505 84.54305088 54.81245079 82.45335912 54.87687683 80.36475945 C55.34194717 67.48462964 55.34194717 67.48462964 49.51806641 56.43655396 C45.64228045 52.55115791 41.40933881 49.25022536 37 46 C35.08521189 44.45923671 33.20145596 42.88506024 31.3125 41.3125 C30.02472656 40.28769531 30.02472656 40.28769531 28.7109375 39.2421875 C24.97535799 36.15252952 21.44925543 32.85475444 17.94067383 29.51098633 C13.15246819 24.99581623 8.20850169 21.16680136 3 17 C2.505 146.195 2.505 146.195 2 278 C8.93 278.33 15.86 278.66 23 279 C38.345 280.485 38.345 280.485 54 282 C54 249.33 54 216.66 54 183 C56.97 183.66 59.94 184.32 63 185 C63 217.34 63 249.68 63 283 C66.63 283 70.26 283 74 283 C78.625 283.375 78.625 283.375 82 284 C83.36239076 286.72478152 83.11969958 288.86840855 83.11352539 291.91845703 C83.11344986 293.15959259 83.11337433 294.40072815 83.11329651 295.67947388 C83.1081895 297.03892049 83.1029735 298.39836669 83.09765625 299.7578125 C83.09579142 301.14500884 83.09436782 302.53220584 83.09336853 303.91940308 C83.08954848 307.57234512 83.07972255 311.22524748 83.06866455 314.87817383 C83.05843944 318.60497501 83.05386855 322.33178259 83.04882812 326.05859375 C83.03809983 333.37241394 83.02102954 340.68620141 83 348 C83.83772949 347.98952637 84.67545898 347.97905273 85.53857422 347.96826172 C88.64338164 347.93419981 91.74809392 347.90911089 94.85302734 347.89013672 C96.8591136 347.87511893 98.86511324 347.84971019 100.87109375 347.82421875 C102.12792969 347.81777344 103.38476562 347.81132812 104.6796875 347.8046875 C105.84226074 347.79421387 107.00483398 347.78374023 108.20263672 347.77294922 C111 348 111 348 113 350 C113.35307004 352.75394635 113.47173063 354.32992159 111.84774929 356.63673562 C109.23062141 358.56764542 107.35928644 358.37489647 104.12351131 358.37473011 C102.88913293 358.38193665 101.65475454 358.3891432 100.38297075 358.39656812 C99.00579559 358.38939038 97.62862187 358.38193145 96.25144958 358.3742218 C94.79422832 358.37696068 93.33700902 358.38101129 91.87979466 358.38626546 C87.86560135 358.39688627 83.85162961 358.38870149 79.83744586 358.37751496 C75.51225653 358.36869612 71.18709694 358.37710971 66.86190796 358.38337708 C58.38526103 358.39288044 49.90869903 358.38625194 41.43205839 358.37411413 C31.5690905 358.36051551 21.70614302 358.36213008 11.84316815 358.36424746 C-5.74934744 358.36743955 -23.34182258 358.35575671 -40.93432617 358.33618164 C-58.02157829 358.31717365 -75.10878299 358.31009458 -92.19604492 358.31567383 C-110.7857711 358.32172567 -129.3754764 358.3215657 -147.96520084 358.310188 C-149.94573812 358.30898065 -151.92627539 358.30777467 -153.90681267 358.30657005 C-154.8813772 358.30596651 -155.85594174 358.30536298 -156.86003854 358.30474115 C-163.74205305 358.30085491 -170.62405982 358.30125834 -177.50607491 358.3031559 C-185.88722544 358.30527358 -194.26833435 358.3000862 -202.64947314 358.28554235 C-206.92914841 358.27827716 -211.20876293 358.27423934 -215.48844337 358.27878571 C-219.40088745 358.28284099 -223.31320572 358.2777574 -227.22563063 358.26515963 C-228.6461564 358.26221458 -230.06669391 358.26268937 -231.48721678 358.26680271 C-233.4079264 358.27186233 -235.3286577 358.26356971 -237.24935246 358.25447559 C-238.31929701 358.25360882 -239.38924156 358.25274204 -240.49160868 358.251849 C-243 358 -243 358 -245 356 C-245.25 353 -245.25 353 -245 350 C-243 348 -243 348 -240.11083984 347.77294922 C-238.90637207 347.78342285 -237.7019043 347.79389648 -236.4609375 347.8046875 C-235.15898437 347.81113281 -233.85703125 347.81757813 -232.515625 347.82421875 C-231.13541405 347.84093071 -229.75520571 347.85786061 -228.375 347.875 C-226.98698548 347.88502994 -225.59896411 347.89415577 -224.2109375 347.90234375 C-220.80711974 347.92598137 -217.40364494 347.95893133 -214 348 C-214.00460896 346.99263385 -214.00921793 345.9852677 -214.01396656 344.9473753 C-214.12485272 320.46155752 -214.20707556 295.97577221 -214.25906086 271.48975658 C-214.28486733 259.64859799 -214.32006458 247.80760503 -214.37719727 235.96655273 C-214.42695737 225.64860897 -214.45927322 215.33078512 -214.47044247 205.0127247 C-214.47697375 199.54686252 -214.49237483 194.08134349 -214.52865028 188.61559105 C-214.56249291 183.47493439 -214.57307673 178.33476344 -214.56553841 173.19400597 C-214.56691822 171.30370955 -214.57692034 169.41339752 -214.59602737 167.52319717 C-214.62078271 164.9487548 -214.61497039 162.3761637 -214.60127258 159.80168152 C-214.61583679 159.04779418 -214.630401 158.29390684 -214.64540654 157.51717442 C-214.61523914 155.43014812 -214.61523914 155.43014812 -214 152 C-211.6602354 150.11060047 -211.6602354 150.11060047 -209 149 C-207.95553711 148.48147461 -206.91107422 147.96294922 -205.83496094 147.42871094 C-204.64676758 146.86958008 -203.45857422 146.31044922 -202.234375 145.734375 C-201.24704124 145.26894539 -201.24704124 145.26894539 -200.23976135 144.79411316 C-198.07790295 143.77640941 -195.91406826 142.76299526 -193.75 141.75 C-193.00567719 141.400513 -192.26135437 141.051026 -191.49447632 140.69094849 C-178.25504058 134.47489239 -164.95988904 128.38458868 -151.62774658 122.37017822 C-143.38555692 118.64164139 -135.20036343 114.82683627 -127 111 C-126.67 93.84 -126.34 76.68 -126 59 C-93.7 42 -93.7 42 -89 42 C-89 41.34 -89 40.68 -89 40 C-87.77217138 39.37237545 -86.54266164 38.74803935 -85.3125 38.125 C-84.62800781 37.77695313 -83.94351563 37.42890625 -83.23828125 37.0703125 C-81 36 -81 36 -78.77172852 35.13598633 C-75.56584973 33.82206455 -72.50974778 32.31106687 -69.4140625 30.75390625 C-68.73719391 30.4140419 -68.06032532 30.07417755 -67.36294556 29.72401428 C-61.67618785 26.86192619 -56.00827204 23.96309478 -50.33953857 21.06552124 C-46.18863154 18.94696996 -42.03348437 16.83684519 -37.87620163 14.73084068 C-34.79481846 13.16909963 -31.71682888 11.6012513 -28.64501953 10.02075195 C-25.05081786 8.17189959 -21.44395976 6.34907883 -17.8359375 4.52734375 C-16.735914 3.95668686 -15.6358905 3.38602997 -14.50253296 2.79808044 C-13.47350861 2.28326614 -12.44448425 1.76845184 -11.38427734 1.23803711 C-10.48655609 0.78029404 -9.58883484 0.32255096 -8.66390991 -0.14906311 C-5.36158057 -1.20393131 -3.32311439 -0.89702524 0 0 Z " fill="#0D0D0D" transform="translate(305,55)"/>
<path d="M0 0 C0 79.86 0 159.72 0 242 C-15.51 242 -31.02 242 -47 242 C-47 232.76 -47 223.52 -47 214 C-49.97 214 -52.94 214 -56 214 C-56 222.91 -56 231.82 -56 241 C-74.81 241 -93.62 241 -113 241 C-113 178.63 -113 116.26 -113 52 C-103.67173793 47.33586897 -94.37142937 42.68738949 -84.92919922 38.26928711 C-83.90774811 37.79094925 -83.90774811 37.79094925 -82.86566162 37.302948 C-82.16749329 36.97610016 -81.46932495 36.64925232 -80.75 36.3125 C-79.25922741 35.61281796 -77.76850574 34.91302744 -76.27783203 34.21313477 C-66.04332948 29.41117906 -55.79586933 24.63719447 -45.53442383 19.89306641 C-39.09268093 16.91237111 -32.6671366 13.90082226 -26.25390625 10.859375 C-24.03880105 9.81143163 -21.82352256 8.76385532 -19.60821533 7.71633911 C-18.17048951 7.03491003 -16.73374631 6.35140356 -15.29803467 5.66574097 C-13.30392605 4.71347181 -11.30663832 3.76819494 -9.30859375 2.82421875 C-7.58854126 2.00570435 -7.58854126 2.00570435 -5.83374023 1.1706543 C-3 0 -3 0 0 0 Z " fill="#FBFCFB" transform="translate(214,161)"/>
<path d="M0 0 C0 87.45 0 174.9 0 265 C-12 265 -12 265 -32 263 C-32.33 210.86 -32.66 158.72 -33 105 C-41.58 100.38 -50.16 95.76 -59 91 C-68.1875 85.5625 -68.1875 85.5625 -71.73046875 83.37890625 C-76.87712215 81.20833438 -79.9027155 82.1784109 -84.87866211 84.12768555 C-88.23620255 85.55448204 -91.55722015 87.04563832 -94.875 88.5625 C-97.14262501 89.58597505 -99.41082191 90.60818429 -101.6796875 91.62890625 C-102.67726074 92.08338135 -103.67483398 92.53785645 -104.70263672 93.00610352 C-107 94 -107 94 -108 94 C-108 80.47 -108 66.94 -108 53 C-91 44 -91 44 -84 41 C-82.15288244 40.02569623 -80.31841849 39.02687162 -78.5 38 C-75.02865282 36.03970983 -71.54733982 34.38187152 -67.88006592 32.82348633 C-64.90591982 31.52078272 -62.01275278 30.06028339 -59.1171875 28.59375 C-58.44460907 28.25541138 -57.77203064 27.91707275 -57.07907104 27.56848145 C-55.56363058 26.80596026 -54.04865244 26.04251981 -52.53405762 25.27832031 C-44.49324679 21.22208586 -36.44412426 17.18232207 -28.39501953 13.14257812 C-26.18924611 12.03458622 -23.9841832 10.92517887 -21.77978516 9.81445312 C-18.56597729 8.19550627 -15.34967233 6.58162217 -12.1328125 4.96875 C-11.14338654 4.46887573 -10.15396057 3.96900146 -9.134552 3.45397949 C-8.22535004 2.99930298 -7.31614807 2.54462646 -6.37939453 2.07617188 C-5.17937302 1.4728302 -5.17937302 1.4728302 -3.95510864 0.8572998 C-2 0 -2 0 0 0 Z " fill="#F9F9F9" transform="translate(297,67)"/>
<path d="M0 0 C3.94512988 1.31504329 6.80882116 2.28313364 10.27734375 4.2421875 C11.03853516 4.66886719 11.79972656 5.09554687 12.58398438 5.53515625 C13.36064453 5.97730469 14.13730469 6.41945312 14.9375 6.875 C15.71029297 7.30941406 16.48308594 7.74382812 17.27929688 8.19140625 C21.86504601 10.7730706 26.4308093 13.38903389 31 16 C31 66.16 31 116.32 31 168 C27.7 167.67 24.4 167.34 21 167 C14.07 166.34 7.14 165.68 0 165 C0 110.55 0 56.1 0 0 Z " fill="#F9F9F9" transform="translate(224,161)"/>
<path d="M0 0 C13.26153846 0 13.26153846 0 18.875 0.875 C29.28505472 2.34527255 39.77661506 2.83549222 50.26171875 3.5 C58.29202512 4.00967111 66.31274659 4.61611648 74.33422852 5.24780273 C80.0366933 5.69615269 85.73969151 6.1286658 91.4453125 6.53515625 C93.29153198 6.66760742 93.29153198 6.66760742 95.17504883 6.80273438 C97.54449732 6.97194662 99.9141205 7.13873564 102.28393555 7.30273438 C103.35168213 7.37943359 104.41942871 7.45613281 105.51953125 7.53515625 C106.45901611 7.600979 107.39850098 7.66680176 108.36645508 7.73461914 C111 8 111 8 113.41943359 8.49780273 C116.54047671 9.10518076 119.59583033 9.30580236 122.76953125 9.5 C124.07083984 9.5825 125.37214844 9.665 126.71289062 9.75 C128.07940829 9.83364101 129.44594495 9.91697209 130.8125 10 C153.38208689 11.38208689 153.38208689 11.38208689 155 13 C155.09353163 14.68801985 155.11744791 16.37995207 155.11352539 18.07055664 C155.11344986 19.15160172 155.11337433 20.23264679 155.11329651 21.34645081 C155.10813522 22.5224736 155.10297394 23.6984964 155.09765625 24.91015625 C155.09553383 26.70591347 155.09553383 26.70591347 155.09336853 28.53794861 C155.08774979 32.37949066 155.07519411 36.22097543 155.0625 40.0625 C155.05748741 42.65950437 155.05292409 45.25650965 155.04882812 47.85351562 C155.03862313 54.23571716 155.01905136 60.6177941 155 67 C141.47 67 127.94 67 114 67 C113.93941406 63.69097656 113.87882812 60.38195312 113.81640625 56.97265625 C113.7546706 53.78228341 113.69126067 50.59194797 113.62768555 47.40161133 C113.58426412 45.17736104 113.54259455 42.95307585 113.50268555 40.72875977 C113.44515694 37.53911805 113.38141316 34.3496532 113.31640625 31.16015625 C113.29969376 30.15912369 113.28298126 29.15809113 113.26576233 28.12672424 C113.2358445 26.74540565 113.2358445 26.74540565 113.20532227 25.33618164 C113.18200584 24.11373497 113.18200584 24.11373497 113.15821838 22.86659241 C113.20086137 20.98590881 113.20086137 20.98590881 112 20 C109.88494386 19.73112226 107.76140407 19.5289604 105.63671875 19.3515625 C104.61771484 19.26590279 104.61771484 19.26590279 103.578125 19.17851257 C101.28168224 18.98822664 98.9846839 18.80610725 96.6875 18.625 C95.89775787 18.56130219 95.10801575 18.49760437 94.29434204 18.43197632 C70.55750741 16.52715949 46.77497433 15.31734686 23 14 C22.67 31.49 22.34 48.98 22 67 C14.74 67 7.48 67 0 67 C0 44.89 0 22.78 0 0 Z " fill="#F4F4F4" transform="translate(224,336)"/>
<path d="M0 0 C3.774375 -0.020625 7.54875 -0.04125 11.4375 -0.0625 C12.60853271 -0.071604 13.77956543 -0.08070801 14.98608398 -0.09008789 C16.41416382 -0.09383423 16.41416382 -0.09383423 17.87109375 -0.09765625 C18.82943115 -0.10289307 19.78776855 -0.10812988 20.77514648 -0.11352539 C24.86443427 0.03043091 28.93320579 0.54813398 33 1 C33 14.2 33 27.4 33 41 C22.11 41 11.22 41 0 41 C0 27.47 0 13.94 0 0 Z " fill="#FAFBF9" transform="translate(255,361)"/>
<path d="M0 0 C0.33 0 0.66 0 1 0 C1.10022461 0.54825439 1.20044922 1.09650879 1.30371094 1.66137695 C4.17887971 17.77042922 4.17887971 17.77042922 10 33 C19.41678722 37.1891502 29.96050563 38.90286118 40 41 C40 41.33 40 41.66 40 42 C39.37544922 42.13051758 38.75089844 42.26103516 38.10742188 42.39550781 C35.23575869 43.00236188 32.36799443 43.62604701 29.5 44.25 C28.51773438 44.45496094 27.53546875 44.65992188 26.5234375 44.87109375 C15.76404184 47.17373264 15.76404184 47.17373264 7.75 54.1875 C3.9489429 63.14110116 2.24922465 73.39737419 1 83 C-1.00072388 79.99891417 -1.32829449 78.81232699 -1.8125 75.375 C-2.6907616 70.09834763 -4.04239818 65.05710349 -5.5625 59.9375 C-5.78462158 59.18710449 -6.00674316 58.43670898 -6.2355957 57.66357422 C-7.39778742 53.74774128 -7.39778742 53.74774128 -9 50 C-11.76975172 49.06577023 -14.49255017 48.25072173 -17.3125 47.5 C-18.12251465 47.27932861 -18.9325293 47.05865723 -19.76708984 46.83129883 C-26.11950239 45.14088974 -32.47897818 43.85668326 -39 43 C-39 42.01 -39 41.02 -39 40 C-37.82824219 39.82984375 -36.65648437 39.6596875 -35.44921875 39.484375 C-27.30128474 38.24639567 -19.63733876 36.92927384 -11.96875 33.76953125 C-10 33 -10 33 -8 33 C-7.80664062 32.26394531 -7.61328125 31.52789062 -7.4140625 30.76953125 C-7.15367187 29.79371094 -6.89328125 28.81789062 -6.625 27.8125 C-6.36976563 26.84957031 -6.11453125 25.88664062 -5.8515625 24.89453125 C-5 22 -5 22 -3.96484375 19.58203125 C-2.76175209 16.36242159 -2.36788274 13.28189531 -1.9375 9.875 C-1.09433962 3.28301887 -1.09433962 3.28301887 0 0 Z " fill="#7AAB48" transform="translate(390,183)"/>
<path d="M0 0 C2.00965979 3.74166584 2.65739124 7.3445985 3.3125 11.5 C5.10437054 23.85236039 5.10437054 23.85236039 12.0546875 33.51953125 C14.69125793 34.67357109 17.19105626 35.36835921 20 36 C21.16015625 36.28101563 22.3203125 36.56203125 23.515625 36.8515625 C29.31622024 38.17212354 35.10530296 39.19856089 41 40 C41 40.66 41 41.32 41 42 C39.92363281 42.17015625 38.84726563 42.3403125 37.73828125 42.515625 C22.52651908 44.21439595 22.52651908 44.21439595 9.30859375 50.55078125 C7.32251662 54.2680062 6.43346636 58.17187908 5.4375 62.25 C5.22931641 63.07113281 5.02113281 63.89226562 4.80664062 64.73828125 C4.19533152 67.15668906 3.59656448 69.57791836 3 72 C2.61647574 73.53660579 2.23240777 75.07307604 1.84765625 76.609375 C1.56792969 77.72828125 1.28820312 78.8471875 1 80 C-0.9647165 76.58273669 -1.64255107 73.29362821 -2.375 69.4375 C-4.08970146 58.59173446 -4.08970146 58.59173446 -9.61328125 49.5390625 C-15.94815351 46.05029227 -23.71504241 44.87535562 -30.734375 43.44140625 C-32.83363854 43.0101881 -34.91890103 42.51174565 -37 42 C-37.33 41.34 -37.66 40.68 -38 40 C-37.30438965 39.82871582 -36.6087793 39.65743164 -35.89208984 39.48095703 C-32.719101 38.69814902 -29.54704846 37.91160948 -26.375 37.125 C-25.28058594 36.85558594 -24.18617187 36.58617187 -23.05859375 36.30859375 C-21.46337891 35.91220703 -21.46337891 35.91220703 -19.8359375 35.5078125 C-18.86188965 35.26691895 -17.8878418 35.02602539 -16.88427734 34.77783203 C-15.93246582 34.52114746 -14.9806543 34.26446289 -14 34 C-12.92484131 33.72961914 -11.84968262 33.45923828 -10.74194336 33.18066406 C-7.90052012 32.27962797 -7.90052012 32.27962797 -6.85229492 30.02587891 C-6.66771729 29.22585449 -6.48313965 28.42583008 -6.29296875 27.6015625 C-6.07302246 26.70598633 -5.85307617 25.81041016 -5.62646484 24.88769531 C-5.41973145 23.93475586 -5.21299805 22.98181641 -5 22 C-4.77135254 21.04963867 -4.54270508 20.09927734 -4.30712891 19.12011719 C-3.61326491 16.21086898 -2.95779004 13.29537608 -2.3125 10.375 C-2.08755859 9.37082031 -1.86261719 8.36664063 -1.63085938 7.33203125 C-1.08402279 4.88871886 -0.54045784 2.44472976 0 0 Z " fill="#74A642" transform="translate(109,75)"/>
<path d="M0 0 C15.89230769 0 15.89230769 0 21.6875 0.4375 C22.82574219 0.51871094 23.96398437 0.59992188 25.13671875 0.68359375 C28 1 28 1 31 2 C31 14.21 31 26.42 31 39 C20.77 39 10.54 39 0 39 C0 26.13 0 13.26 0 0 Z " fill="#FBFCFB" transform="translate(297,363)"/>
<path d="M0 0 C0 2.97 0 5.94 0 9 C-0.92635254 9.41773682 -1.85270508 9.83547363 -2.80712891 10.26586914 C-6.31606556 11.84913062 -9.8232957 13.43614345 -13.33007812 15.02416992 C-14.83451362 15.70484696 -16.33938168 16.38456891 -17.84472656 17.06323242 C-26.61665931 21.01880023 -35.30267892 25.07356042 -43.85864258 29.47924805 C-48.19296256 31.57752108 -52.6261241 33.23558543 -57.16015625 34.859375 C-60.00519939 35.91520893 -60.00519939 35.91520893 -62.453125 37.47265625 C-65.43116037 39.25856396 -68.44274366 40.45545455 -71.6875 41.6875 C-72.82574219 42.12449219 -73.96398437 42.56148437 -75.13671875 43.01171875 C-78 44 -78 44 -80 44 C-80 40.7 -80 37.4 -80 34 C-75.67210699 31.79808952 -71.36045625 29.72139189 -66.89320374 27.81465149 C-63.98745375 26.56429818 -61.10377116 25.26610744 -58.21875 23.96875 C-57.60157104 23.69156128 -56.98439209 23.41437256 -56.34851074 23.12878418 C-54.39875252 22.25308815 -52.44933261 21.376643 -50.5 20.5 C-47.92739218 19.34306115 -45.35442759 18.18692097 -42.78125 17.03125 C-41.64751953 16.52142578 -40.51378906 16.01160156 -39.34570312 15.48632812 C-35.90988409 13.95996602 -32.45619085 12.47954914 -29 11 C-27.3700179 10.27485294 -25.74217779 9.54485898 -24.1171875 8.80859375 C-23.25996094 8.42123047 -22.40273437 8.03386719 -21.51953125 7.63476562 C-19.74855914 6.83298874 -17.977727 6.03090264 -16.20703125 5.22851562 C-14.92505859 4.6494043 -14.92505859 4.6494043 -13.6171875 4.05859375 C-12.46645752 3.53736938 -12.46645752 3.53736938 -11.29248047 3.00561523 C-10.15770264 2.50783569 -10.15770264 2.50783569 -9 2 C-8.16227051 1.6275415 -7.32454102 1.25508301 -6.46142578 0.87133789 C-4 0 -4 0 0 0 Z " fill="#76A745" transform="translate(197,207)"/>
<path d="M0 0 C0 2.97 0 5.94 0 9 C-15.88038894 16.16425915 -31.84470876 23.11606398 -47.875 29.9375 C-48.72835937 30.30148895 -49.58171875 30.66547791 -50.4609375 31.04049683 C-60.24255259 35.21002783 -70.03602992 39.28171613 -80 43 C-80 39.7 -80 36.4 -80 33 C-70.41505442 27.97978574 -60.46652147 23.87671457 -50.5 19.6875 C-47.05115346 18.23526891 -43.60327522 16.78076758 -40.15625 15.32421875 C-39.31022217 14.9670578 -38.46419434 14.60989685 -37.5925293 14.24191284 C-31.04382534 11.46711667 -24.53817391 8.60226257 -18.06018066 5.66618347 C-5.47780667 0 -5.47780667 0 0 0 Z " fill="#75A644" transform="translate(197,255)"/>
<path d="M0 0 C0 3.3 0 6.6 0 10 C-19.80894072 18.24725477 -39.62360579 26.48125458 -59.49819946 34.56930542 C-61.1236658 35.23113627 -62.74864678 35.89416046 -64.37313843 36.55838013 C-66.63146093 37.48124211 -68.89158813 38.39952388 -71.15234375 39.31640625 C-71.82126648 39.59057373 -72.49018921 39.86474121 -73.17938232 40.1472168 C-77.77084482 42 -77.77084482 42 -80 42 C-80 38.7 -80 35.4 -80 32 C-79.21915039 31.68474365 -78.43830078 31.3694873 -77.63378906 31.04467773 C-59.73143469 23.8102891 -41.87140935 16.48176793 -24.05957031 9.02709961 C-11.87508441 3.92866816 -11.87508441 3.92866816 -6.0859375 1.56640625 C-5.33103027 1.25775635 -4.57612305 0.94910645 -3.79833984 0.63110352 C-2 0 -2 0 0 0 Z " fill="#75A745" transform="translate(197,302)"/>
<path d="M0 0 C2.83339965 -0.02724423 5.66653117 -0.04695589 8.5 -0.0625 C9.29148437 -0.07087891 10.08296875 -0.07925781 10.8984375 -0.08789062 C16.02761717 -0.10891185 20.92336106 0.26062713 26 1 C26 1.33 26 1.66 26 2 C23.36 2 20.72 2 18 2 C18 14.87 18 27.74 18 41 C28.23 41 38.46 41 49 41 C49 28.79 49 16.58 49 4 C43.39 3.67 37.78 3.34 32 3 C32 2.67 32 2.34 32 2 C37.94 2 43.88 2 50 2 C50 15.2 50 28.4 50 42 C25.58 42 1.16 42 -24 42 C-24 41.67 -24 41.34 -24 41 C-13.11 41 -2.22 41 9 41 C9 27.8 9 14.6 9 1 C6.03 1 3.06 1 0 1 C0 0.67 0 0.34 0 0 Z " fill="#859D6E" transform="translate(279,361)"/>
<path d="M0 0 C0.99 0.495 0.99 0.495 2 1 C3.4465242 1.15067214 4.8987934 1.24861036 6.3515625 1.31640625 C7.62773437 1.37924805 7.62773437 1.37924805 8.9296875 1.44335938 C9.81914062 1.48267578 10.70859375 1.52199219 11.625 1.5625 C12.97078125 1.62727539 12.97078125 1.62727539 14.34375 1.69335938 C16.56234283 1.79956861 18.7810488 1.90161194 21 2 C21 2.33 21 2.66 21 3 C17.04 3 13.08 3 9 3 C9 16.53 9 30.06 9 44 C6.03 44 3.06 44 0 44 C0 29.48 0 14.96 0 0 Z " fill="#6FA140" transform="translate(246,358)"/>
<path d="M0 0 C2.31 0 4.62 0 7 0 C7 12.87 7 25.74 7 39 C6.67 39 6.34 39 6 39 C5.67 36.03 5.34 33.06 5 30 C4.814375 31.7015625 4.814375 31.7015625 4.625 33.4375 C4.41875 34.613125 4.2125 35.78875 4 37 C3.01 37.495 3.01 37.495 2 38 C1.34 37.67 0.68 37.34 0 37 C0 24.79 0 12.58 0 0 Z " fill="#7AAC4A" transform="translate(290,363)"/>
<path d="M0 0 C0.33 0 0.66 0 1 0 C1 50.82 1 101.64 1 154 C1.99 154 2.98 154 4 154 C4 154.99 4 155.98 4 157 C2.68 157 1.36 157 0 157 C0 105.19 0 53.38 0 0 Z " fill="#E7E6E7" transform="translate(265,173)"/>
<path d="M0 0 C-0.66 0.66 -1.32 1.32 -2 2 C-2 2.99 -2 3.98 -2 5 C-5.21456356 6.03719328 -7.40925583 5.94068337 -10.6875 5.1875 C-11.47511719 5.01605469 -12.26273437 4.84460938 -13.07421875 4.66796875 C-15 4 -15 4 -16 2 C-14.08654673 1.46748234 -12.1690705 0.94940517 -10.25 0.4375 C-9.18265625 0.14746094 -8.1153125 -0.14257812 -7.015625 -0.44140625 C-4.15664073 -0.97098494 -2.68402617 -0.98370862 0 0 Z " fill="#89B45D" transform="translate(87,113)"/>
<path d="M0 0 C13.86 0.495 13.86 0.495 28 1 C28 1.33 28 1.66 28 2 C27.19780029 2.02505615 26.39560059 2.0501123 25.5690918 2.07592773 C21.94172926 2.19182043 18.31463083 2.31457751 14.6875 2.4375 C13.42486328 2.47681641 12.16222656 2.51613281 10.86132812 2.55664062 C9.04858398 2.61948242 9.04858398 2.61948242 7.19921875 2.68359375 C5.52605591 2.73858032 5.52605591 2.73858032 3.8190918 2.79467773 C0.92126429 2.88931209 0.92126429 2.88931209 -2 4 C-1.34 2.68 -0.68 1.36 0 0 Z " fill="#101010" transform="translate(62,403)"/>
<path d="M0 0 C0.90105469 0.00902344 1.80210937 0.01804687 2.73046875 0.02734375 C3.41753906 0.03894531 4.10460937 0.05054687 4.8125 0.0625 C4.8125 0.7225 4.8125 1.3825 4.8125 2.0625 C1.13862505 2.91548376 -2.2322393 3.17039471 -6 3.125 C-7.46373047 3.11146484 -7.46373047 3.11146484 -8.95703125 3.09765625 C-10.06111328 3.08025391 -10.06111328 3.08025391 -11.1875 3.0625 C-7.23784431 0.4293962 -4.63874115 -0.06024339 0 0 Z " fill="#82AE5B" transform="translate(145.1875,114.9375)"/>
<path d="M0 0 C0.66 0.33 1.32 0.66 2 1 C0.61133677 1.9893091 -0.78629851 2.96603078 -2.1875 3.9375 C-2.96480469 4.48277344 -3.74210937 5.02804688 -4.54296875 5.58984375 C-7.12089086 7.06938251 -9.040574 7.76623022 -12 8 C-12.66 7.34 -13.32 6.68 -14 6 C-11.71220962 4.96959833 -9.42048864 3.95047982 -7.125 2.9375 C-6.47402344 2.64294922 -5.82304688 2.34839844 -5.15234375 2.04492188 C-3.45989459 1.30338487 -1.73131425 0.64560999 0 0 Z " fill="#D2D2D2" transform="translate(124,202)"/>
<path d="M0 0 C0.33 0 0.66 0 1 0 C1.22226864 1.76913824 1.42733873 3.54044371 1.625 5.3125 C1.74101562 6.29863281 1.85703125 7.28476563 1.9765625 8.30078125 C2 11 2 11 0 14 C-2 12 -2 12 -2.01171875 9.94140625 C-1.90472656 9.15636719 -1.79773438 8.37132812 -1.6875 7.5625 C-1.58824219 6.78003906 -1.48898437 5.99757812 -1.38671875 5.19140625 C-1 3 -1 3 0 0 Z " fill="#94BD6F" transform="translate(390,183)"/>
<path d="M0 0 C0.33 0 0.66 0 1 0 C1.22786458 2.01822917 1.45572917 4.03645833 1.68359375 6.0546875 C1.91292961 8.07404316 1.91292961 8.07404316 3 10 C0.03 10 -2.94 10 -6 10 C-5.34 9.01 -4.68 8.02 -4 7 C-3.01 7 -2.02 7 -1 7 C-0.67 4.69 -0.34 2.38 0 0 Z " fill="#67963A" transform="translate(294,393)"/>
<path d="M0 0 C3.3 0 6.6 0 10 0 C10 0.99 10 1.98 10 3 C6.7 3 3.4 3 0 3 C0 2.01 0 1.02 0 0 Z " fill="#DADADA" transform="translate(348,334)"/>
<path d="M0 0 C0.66 0 1.32 0 2 0 C2.33 0.99 2.66 1.98 3 3 C-1.29 4.65 -5.58 6.3 -10 8 C-10 7.34 -10 6.68 -10 6 C-8.71086513 5.32845067 -7.41859796 4.66291141 -6.125 4 C-5.40570313 3.62875 -4.68640625 3.2575 -3.9453125 2.875 C-2 2 -2 2 0 2 C0 1.34 0 0.68 0 0 Z " fill="#202020" transform="translate(209,107)"/>
<path d="M0 0 C-1.90401138 1.90401138 -3.33425686 2.93520439 -6.046875 3.19921875 C-8.03233273 3.1886578 -10.0169914 3.09915043 -12 3 C-12 2.34 -12 1.68 -12 1 C-8.0186217 -0.3271261 -4.14954773 -0.06915913 0 0 Z " fill="#ECECEC" transform="translate(311,363)"/>
<path d="M0 0 C-0.6875 1.9375 -0.6875 1.9375 -2 4 C-4.5 4.875 -4.5 4.875 -7 5 C-7.66 4.34 -8.32 3.68 -9 3 C-2.25 0 -2.25 0 0 0 Z " fill="#87B55A" transform="translate(141,231)"/>
<path d="M0 0 C0.33 0 0.66 0 1 0 C1.9765625 6.0546875 1.9765625 6.0546875 2 8 C1.34 8.66 0.68 9.32 0 10 C-0.66 7.36 -1.32 4.72 -2 2 C-1.34 2 -0.68 2 0 2 C0 1.34 0 0.68 0 0 Z " fill="#87B75E" transform="translate(393,198)"/>
<path d="M0 0 C0.66 0 1.32 0 2 0 C2 2.97 2 5.94 2 9 C1.34 9 0.68 9 0 9 C-0.87890625 2.84765625 -0.87890625 2.84765625 -1 1 C-0.67 0.67 -0.34 0.34 0 0 Z " fill="#699E35" transform="translate(195,207)"/>
<path d="M0 0 C1.98 0 3.96 0 6 0 C6.33 0.66 6.66 1.32 7 2 C4.69 2.33 2.38 2.66 0 3 C0 2.01 0 1.02 0 0 Z " fill="#232323" transform="translate(330,355)"/>
<path d="M0 0 C0.33 0.66 0.66 1.32 1 2 C1.66 2.33 2.32 2.66 3 3 C0.69 3.66 -1.62 4.32 -4 5 C-4 4.01 -4 3.02 -4 2 C-2.68 1.34 -1.36 0.68 0 0 Z " fill="#1C1B1B" transform="translate(225,99)"/>
</svg>
